<?xml version="1.0" encoding="UTF-8" standalone="no"?>
<!-- Created with Inkscape (http://www.inkscape.org/) -->

<svg
   xmlns:dc="http://purl.org/dc/elements/1.1/"
   xmlns:cc="http://creativecommons.org/ns#"
   xmlns:rdf="http://www.w3.org/1999/02/22-rdf-syntax-ns#"
   xmlns:svg="http://www.w3.org/2000/svg"
   xmlns="http://www.w3.org/2000/svg"
   xmlns:sodipodi="http://sodipodi.sourceforge.net/DTD/sodipodi-0.dtd"
   xmlns:inkscape="http://www.inkscape.org/namespaces/inkscape"
   width="128"
   height="128"
   viewBox="0 0 33.866666 33.866668"
   version="1.1"
   id="svg8"
   inkscape:version="0.92.3 (2405546, 2018-03-11)"
   sodipodi:docname="LOCK_ICON.svg"
   inkscape:export-filename="/home/fafm/projects/HTML/Git_projects/guardian/guardian/assets/lock-icon.png"
   inkscape:export-xdpi="90"
   inkscape:export-ydpi="90">
  <defs
     id="defs2" />
  <sodipodi:namedview
     id="base"
     pagecolor="#ffffff"
     bordercolor="#666666"
     borderopacity="1.0"
     inkscape:pageopacity="0.0"
     inkscape:pageshadow="2"
     inkscape:zoom="1"
     inkscape:cx="-27.214286"
     inkscape:cy="100.46557"
     inkscape:document-units="mm"
     inkscape:current-layer="layer1"
     showgrid="false"
     units="px"
     inkscape:window-width="1366"
     inkscape:window-height="714"
     inkscape:window-x="0"
     inkscape:window-y="26"
     inkscape:window-maximized="1" />
  <metadata
     id="metadata5">
    <rdf:RDF>
      <cc:Work
         rdf:about="">
        <dc:format>image/svg+xml</dc:format>
        <dc:type
           rdf:resource="http://purl.org/dc/dcmitype/StillImage" />
        <dc:title></dc:title>
      </cc:Work>
    </rdf:RDF>
  </metadata>
  <g
     inkscape:label="Camada 1"
     inkscape:groupmode="layer"
     id="layer1"
     transform="translate(0,-263.13332)">
    <g
       id="g13"
       transform="translate(0,-1.3333333e-5)"
       style="stroke-width:1"
       inkscape:export-xdpi="90"
       inkscape:export-ydpi="90">
      <rect
         y="263.13333"
         x="3.5527137e-15"
         height="33.866669"
         width="33.866665"
         id="rect37"
         style="opacity:1;fill:#000000;fill-opacity:1;fill-rule:evenodd;stroke:none;stroke-width:0.40000001;stroke-miterlimit:4;stroke-dasharray:none;stroke-opacity:1" />
      <path
         id="rect33"
         transform="matrix(0.26458333,0,0,0.26458333,0,263.13332)"
         d="m 13.214844,52.5 v 72.85547 H 112.5 V 52.5 Z M 62.5,73.517578 a 12.967418,13.025588 0 0 1 12.941406,12.50586 H 77.5 v 22.113282 h -30 V 86.023438 h 2.050781 A 12.967418,13.025588 0 0 1 62.5,73.517578 Z m 0,3.44336 a 9.5403148,9.5831116 0 0 0 -9.513672,9.0625 H 72.021484 A 9.5403148,9.5831116 0 0 0 62.5,76.960938 Z"
         style="opacity:1;fill:#ffffff;fill-opacity:1;fill-rule:evenodd;stroke:#ffffff;stroke-width:1.51181102;stroke-miterlimit:4;stroke-dasharray:none;stroke-opacity:1"
         inkscape:connector-curvature="0" />
      <path
         id="path23"
         transform="matrix(0.26458333,0,0,0.26458333,0,263.13332)"
         d="M 62.857422,11.298828 A 42.914585,42.914585 0 0 0 20.003906,52.5 H 31.369141 A 31.572873,31.572873 0 0 1 62.857422,22.640625 31.572873,31.572873 0 0 1 94.369141,52.5 H 105.68555 A 42.914585,42.914585 0 0 0 62.857422,11.298828 Z"
         style="opacity:1;fill:#ffffff;fill-opacity:1;fill-rule:evenodd;stroke:#ffffff;stroke-width:1.51181102;stroke-miterlimit:4;stroke-dasharray:none;stroke-opacity:1"
         inkscape:connector-curvature="0" />
    </g>
  </g>
</svg>
